<svg xmlns="http://www.w3.org/2000/svg" width="1200" height="760" viewBox="0 0 1200 760"><defs><marker id="a" markerWidth="9" markerHeight="9" refX="8" refY="4" orient="auto-start-reverse"><path d="M0,0 L0,8 L9,4 Z" fill="context-stroke"/></marker><marker id="a2779b8" markerWidth="9" markerHeight="9" refX="8" refY="4" orient="auto-start-reverse"><path d="M0,0 L0,8 L9,4 Z" fill="#2779b8"/></marker><marker id="a207b67" markerWidth="9" markerHeight="9" refX="8" refY="4" orient="auto-start-reverse"><path d="M0,0 L0,8 L9,4 Z" fill="#207b67"/></marker><marker id="a7750a3" markerWidth="9" markerHeight="9" refX="8" refY="4" orient="auto-start-reverse"><path d="M0,0 L0,8 L9,4 Z" fill="#7750a3"/></marker><marker id="ab16e17" markerWidth="9" markerHeight="9" refX="8" refY="4" orient="auto-start-reverse"><path d="M0,0 L0,8 L9,4 Z" fill="#b16e17"/></marker><marker id="ab34444" markerWidth="9" markerHeight="9" refX="8" refY="4" orient="auto-start-reverse"><path d="M0,0 L0,8 L9,4 Z" fill="#b34444"/></marker><marker id="a627183" markerWidth="9" markerHeight="9" refX="8" refY="4" orient="auto-start-reverse"><path d="M0,0 L0,8 L9,4 Z" fill="#627183"/></marker></defs><rect width="1200" height="760" fill="white"/><g font-family="Arial, sans-serif"><text x="40" y="63" fill="#172c46" font-size="35" text-anchor="start" font-weight="bold">CQR rank correction</text><path d="M40,135 L1160,135" fill="none" stroke="#dce5ee" stroke-width="2"/><text x="60" y="205" fill="#172c46" font-size="29" text-anchor="start" font-weight="bold">9 held-out scores → ceil(10 × 0.8) = rank 8</text><rect x="70" y="245" width="104" height="92" rx="8" fill="#eaf3fb" stroke="#b8c5d3" stroke-width="2"/><text x="122" y="280" fill="#172c46" font-size="21" text-anchor="middle" font-weight="normal">Rank 1</text><text x="122" y="319" fill="#627183" font-size="25" text-anchor="middle" font-weight="normal">…</text><rect x="192" y="245" width="104" height="92" rx="8" fill="#eaf3fb" stroke="#b8c5d3" stroke-width="2"/><text x="244" y="280" fill="#172c46" font-size="21" text-anchor="middle" font-weight="normal">Rank 2</text><text x="244" y="319" fill="#627183" font-size="25" text-anchor="middle" font-weight="normal">…</text><rect x="314" y="245" width="104" height="92" rx="8" fill="#eaf3fb" stroke="#b8c5d3" stroke-width="2"/><text x="366" y="280" fill="#172c46" font-size="21" text-anchor="middle" font-weight="normal">Rank 3</text><text x="366" y="319" fill="#627183" font-size="25" text-anchor="middle" font-weight="normal">…</text><rect x="436" y="245" width="104" height="92" rx="8" fill="#eaf3fb" stroke="#b8c5d3" stroke-width="2"/><text x="488" y="280" fill="#172c46" font-size="21" text-anchor="middle" font-weight="normal">Rank 4</text><text x="488" y="319" fill="#627183" font-size="25" text-anchor="middle" font-weight="normal">…</text><rect x="558" y="245" width="104" height="92" rx="8" fill="#eaf3fb" stroke="#b8c5d3" stroke-width="2"/><text x="610" y="280" fill="#172c46" font-size="21" text-anchor="middle" font-weight="normal">Rank 5</text><text x="610" y="319" fill="#627183" font-size="25" text-anchor="middle" font-weight="normal">…</text><rect x="680" y="245" width="104" height="92" rx="8" fill="#eaf3fb" stroke="#b8c5d3" stroke-width="2"/><text x="732" y="280" fill="#172c46" font-size="21" text-anchor="middle" font-weight="normal">Rank 6</text><text x="732" y="319" fill="#627183" font-size="25" text-anchor="middle" font-weight="normal">…</text><rect x="802" y="245" width="104" height="92" rx="8" fill="#eaf3fb" stroke="#b8c5d3" stroke-width="2"/><text x="854" y="280" fill="#172c46" font-size="21" text-anchor="middle" font-weight="normal">Rank 7</text><text x="854" y="319" fill="#627183" font-size="25" text-anchor="middle" font-weight="normal">…</text><rect x="924" y="245" width="104" height="92" rx="8" fill="#fff4e3" stroke="#b8c5d3" stroke-width="2"/><text x="976" y="280" fill="#172c46" font-size="21" text-anchor="middle" font-weight="normal">Rank 8</text><text x="976" y="319" fill="#b16e17" font-size="25" text-anchor="middle" font-weight="normal">12 min</text><rect x="1046" y="245" width="104" height="92" rx="8" fill="#eaf3fb" stroke="#b8c5d3" stroke-width="2"/><text x="1098" y="280" fill="#172c46" font-size="21" text-anchor="middle" font-weight="normal">Rank 9</text><text x="1098" y="319" fill="#627183" font-size="25" text-anchor="middle" font-weight="normal">…</text><path d="M150,575 L1100,575" fill="none" stroke="#627183" stroke-width="2"/><path d="M150.0,575 L150.0,385" fill="none" stroke="#e6ecf2" stroke-width="1"/><text x="150.0" y="605" fill="#627183" font-size="20" text-anchor="middle" font-weight="normal">0</text><path d="M421.42857142857144,575 L421.42857142857144,385" fill="none" stroke="#e6ecf2" stroke-width="1"/><text x="421.42857142857144" y="605" fill="#627183" font-size="20" text-anchor="middle" font-weight="normal">40</text><path d="M611.4285714285714,575 L611.4285714285714,385" fill="none" stroke="#e6ecf2" stroke-width="1"/><text x="611.4285714285714" y="605" fill="#627183" font-size="20" text-anchor="middle" font-weight="normal">68</text><path d="M692.8571428571429,575 L692.8571428571429,385" fill="none" stroke="#e6ecf2" stroke-width="1"/><text x="692.8571428571429" y="605" fill="#627183" font-size="20" text-anchor="middle" font-weight="normal">80</text><path d="M896.4285714285714,575 L896.4285714285714,385" fill="none" stroke="#e6ecf2" stroke-width="1"/><text x="896.4285714285714" y="605" fill="#627183" font-size="20" text-anchor="middle" font-weight="normal">110</text><path d="M977.8571428571429,575 L977.8571428571429,385" fill="none" stroke="#e6ecf2" stroke-width="1"/><text x="977.8571428571429" y="605" fill="#627183" font-size="20" text-anchor="middle" font-weight="normal">122</text><path d="M1100.0,575 L1100.0,385" fill="none" stroke="#e6ecf2" stroke-width="1"/><text x="1100.0" y="605" fill="#627183" font-size="20" text-anchor="middle" font-weight="normal">140</text><text x="1100" y="630" fill="#627183" font-size="23" text-anchor="end" font-weight="normal">Duration (min)</text><rect x="692.8571428571429" y="405" width="203.57142857142858" height="53" rx="8" fill="#eaf3fb" stroke="#b8c5d3" stroke-width="2"/><text x="65" y="395" fill="#2779b8" font-size="25" text-anchor="start" font-weight="normal">Fitted [80,110]</text><rect x="611.4285714285714" y="485" width="366.42857142857144" height="53" rx="8" fill="#e9f5ef" stroke="#b8c5d3" stroke-width="2"/><text x="65" y="475" fill="#207b67" font-size="25" text-anchor="start" font-weight="normal">Corrected [68,122]</text><rect x="35" y="643" width="1130" height="53" rx="8" fill="#f6f8fb" stroke="#dfe6ed" stroke-width="2"/><text x="55" y="677" fill="#172c46" font-size="22" text-anchor="start" font-weight="normal">Use q = 12 min: [l − q, u + q]. Standard coverage requires exchangeability.</text><text x="40" y="742" fill="#627183" font-size="17" text-anchor="start" font-weight="normal">Original explanatory diagram • sources in article</text><text x="1160" y="742" fill="#627183" font-size="17" text-anchor="end" font-weight="normal">Illustrative • not a benchmark</text></g></svg>